<mxfile host="app.diagrams.net" modified="2024-07-18T01:29:53.685Z" agent="Mozilla/5.0 (Macintosh; Intel Mac OS X 10_15_7) AppleWebKit/537.36 (KHTML, like Gecko) Chrome/126.0.0.0 Safari/537.36" etag="4Ox4EYxkVI8sNBOtXiRi" version="24.6.4" type="github">
  <diagram name="페이지-1" id="XIiHkbwO5vJLCOaLFscR">
    <mxGraphModel dx="869" dy="482" grid="1" gridSize="10" guides="1" tooltips="1" connect="1" arrows="1" fold="1" page="1" pageScale="1" pageWidth="1654" pageHeight="1169" math="0" shadow="0">
      <root>
        <mxCell id="0" />
        <mxCell id="1" parent="0" />
        <mxCell id="avvWg3cv_dRgICwLxERR-60" value="send" style="rounded=1;orthogonalLoop=1;jettySize=auto;html=1;entryX=-0.06;entryY=0.526;entryDx=0;entryDy=0;entryPerimeter=0;exitX=0.981;exitY=0.626;exitDx=0;exitDy=0;exitPerimeter=0;curved=0;" edge="1" parent="1" source="avvWg3cv_dRgICwLxERR-88" target="avvWg3cv_dRgICwLxERR-54">
          <mxGeometry x="0.2545" relative="1" as="geometry">
            <mxPoint x="1630" y="650" as="targetPoint" />
            <mxPoint x="930" y="470" as="sourcePoint" />
            <Array as="points">
              <mxPoint x="870" y="731" />
              <mxPoint x="870" y="474" />
            </Array>
            <mxPoint as="offset" />
          </mxGeometry>
        </mxCell>
        <mxCell id="avvWg3cv_dRgICwLxERR-65" value="sync" style="edgeLabel;html=1;align=center;verticalAlign=middle;resizable=0;points=[];" vertex="1" connectable="0" parent="avvWg3cv_dRgICwLxERR-60">
          <mxGeometry x="0.2225" y="-2" relative="1" as="geometry">
            <mxPoint x="258" y="24" as="offset" />
          </mxGeometry>
        </mxCell>
        <mxCell id="avvWg3cv_dRgICwLxERR-36" style="rounded=0;orthogonalLoop=1;jettySize=auto;html=1;dashed=1;entryX=0.25;entryY=0;entryDx=0;entryDy=0;exitX=0.502;exitY=1.013;exitDx=0;exitDy=0;exitPerimeter=0;" edge="1" parent="1" source="avvWg3cv_dRgICwLxERR-6" target="avvWg3cv_dRgICwLxERR-76">
          <mxGeometry relative="1" as="geometry">
            <mxPoint x="680" y="290" as="sourcePoint" />
            <mxPoint x="920" y="240" as="targetPoint" />
          </mxGeometry>
        </mxCell>
        <mxCell id="avvWg3cv_dRgICwLxERR-79" value="pull" style="edgeLabel;html=1;align=center;verticalAlign=middle;resizable=0;points=[];" vertex="1" connectable="0" parent="avvWg3cv_dRgICwLxERR-36">
          <mxGeometry x="-0.6541" relative="1" as="geometry">
            <mxPoint y="-13" as="offset" />
          </mxGeometry>
        </mxCell>
        <mxCell id="avvWg3cv_dRgICwLxERR-6" value="" style="image;sketch=0;aspect=fixed;html=1;points=[];align=center;fontSize=12;image=img/lib/mscae/Docker.svg;" vertex="1" parent="1">
          <mxGeometry x="558" y="194" width="158.54" height="130" as="geometry" />
        </mxCell>
        <mxCell id="avvWg3cv_dRgICwLxERR-10" value="S1ESP - WEB1 Server" style="shape=umlFrame;whiteSpace=wrap;html=1;pointerEvents=0;recursiveResize=0;container=1;collapsible=0;width=160;" vertex="1" parent="1">
          <mxGeometry x="920" y="400" width="300" height="180" as="geometry" />
        </mxCell>
        <mxCell id="avvWg3cv_dRgICwLxERR-59" style="rounded=0;orthogonalLoop=1;jettySize=auto;html=1;dashed=1;entryX=0.5;entryY=0;entryDx=0;entryDy=0;edgeStyle=orthogonalEdgeStyle;" edge="1" parent="avvWg3cv_dRgICwLxERR-10" source="avvWg3cv_dRgICwLxERR-54" target="avvWg3cv_dRgICwLxERR-89">
          <mxGeometry relative="1" as="geometry">
            <mxPoint x="186.02010100999314" y="120" as="targetPoint" />
          </mxGeometry>
        </mxCell>
        <mxCell id="avvWg3cv_dRgICwLxERR-54" value="" style="image;aspect=fixed;html=1;points=[];align=center;fontSize=12;image=img/lib/azure2/general/Folder_Blank.svg;" vertex="1" parent="avvWg3cv_dRgICwLxERR-10">
          <mxGeometry x="119" y="59.999999999999986" width="32" height="25.97" as="geometry" />
        </mxCell>
        <mxCell id="avvWg3cv_dRgICwLxERR-55" value="/www/consumer" style="text;html=1;align=center;verticalAlign=middle;whiteSpace=wrap;rounded=0;" vertex="1" parent="avvWg3cv_dRgICwLxERR-10">
          <mxGeometry x="169" y="56.97999999999999" width="60" height="30" as="geometry" />
        </mxCell>
        <mxCell id="avvWg3cv_dRgICwLxERR-89" value="&lt;div&gt;lsync Daemon&lt;/div&gt;" style="rounded=1;whiteSpace=wrap;html=1;" vertex="1" parent="avvWg3cv_dRgICwLxERR-10">
          <mxGeometry x="80" y="110" width="110" height="42" as="geometry" />
        </mxCell>
        <mxCell id="avvWg3cv_dRgICwLxERR-57" value="ssh" style="rounded=0;whiteSpace=wrap;html=1;" vertex="1" parent="avvWg3cv_dRgICwLxERR-10">
          <mxGeometry x="-30" y="65.97000000000003" width="60" height="20" as="geometry" />
        </mxCell>
        <mxCell id="avvWg3cv_dRgICwLxERR-11" value="S1ESP - WEB2 Server" style="shape=umlFrame;whiteSpace=wrap;html=1;pointerEvents=0;recursiveResize=0;container=1;collapsible=0;width=160;flipH=0;" vertex="1" parent="1">
          <mxGeometry x="920" y="630" width="300" height="180" as="geometry" />
        </mxCell>
        <mxCell id="avvWg3cv_dRgICwLxERR-61" value="" style="image;aspect=fixed;html=1;points=[];align=center;fontSize=12;image=img/lib/azure2/general/Folder_Blank.svg;" vertex="1" parent="avvWg3cv_dRgICwLxERR-11">
          <mxGeometry x="119.99999999999997" y="87.49999999999999" width="33.27" height="27" as="geometry" />
        </mxCell>
        <mxCell id="avvWg3cv_dRgICwLxERR-62" value="/www/consumer" style="text;html=1;align=center;verticalAlign=middle;whiteSpace=wrap;rounded=0;" vertex="1" parent="avvWg3cv_dRgICwLxERR-11">
          <mxGeometry x="174.63" y="87.50999999999999" width="60" height="22.98" as="geometry" />
        </mxCell>
        <mxCell id="avvWg3cv_dRgICwLxERR-63" value="ssh" style="rounded=0;whiteSpace=wrap;html=1;" vertex="1" parent="avvWg3cv_dRgICwLxERR-11">
          <mxGeometry x="-23" y="89.99999999999999" width="60" height="20" as="geometry" />
        </mxCell>
        <mxCell id="avvWg3cv_dRgICwLxERR-16" value="" style="endArrow=none;html=1;rounded=0;" edge="1" parent="1">
          <mxGeometry width="50" height="50" relative="1" as="geometry">
            <mxPoint x="70" y="910" as="sourcePoint" />
            <mxPoint x="1300" y="910" as="targetPoint" />
          </mxGeometry>
        </mxCell>
        <mxCell id="avvWg3cv_dRgICwLxERR-29" value="node:14-alpine" style="text;html=1;align=center;verticalAlign=middle;whiteSpace=wrap;rounded=0;" vertex="1" parent="1">
          <mxGeometry x="650" y="380" width="101.46" height="10" as="geometry" />
        </mxCell>
        <mxCell id="avvWg3cv_dRgICwLxERR-66" value="Runner Serve&lt;span style=&quot;background-color: initial;&quot;&gt;r&lt;/span&gt;&lt;div&gt;&lt;span style=&quot;background-color: initial;&quot;&gt;(222.234.223.172)&lt;/span&gt;&lt;/div&gt;" style="shape=umlFrame;whiteSpace=wrap;html=1;pointerEvents=0;recursiveResize=0;container=1;collapsible=0;width=200;height=40;" vertex="1" parent="1">
          <mxGeometry x="380" y="420" width="460" height="370" as="geometry" />
        </mxCell>
        <mxCell id="avvWg3cv_dRgICwLxERR-76" value="Gitlab&amp;nbsp;&lt;div&gt;Runner Daemon&lt;/div&gt;" style="rounded=1;whiteSpace=wrap;html=1;" vertex="1" parent="avvWg3cv_dRgICwLxERR-66">
          <mxGeometry x="230" y="58.000000000000014" width="110" height="42" as="geometry" />
        </mxCell>
        <mxCell id="avvWg3cv_dRgICwLxERR-21" value="Docker Container" style="shape=umlFrame;whiteSpace=wrap;html=1;pointerEvents=0;recursiveResize=0;container=1;collapsible=0;width=160;" vertex="1" parent="avvWg3cv_dRgICwLxERR-66">
          <mxGeometry x="60" y="150" width="338.5" height="190" as="geometry" />
        </mxCell>
        <mxCell id="avvWg3cv_dRgICwLxERR-46" value="" style="edgeStyle=orthogonalEdgeStyle;rounded=0;orthogonalLoop=1;jettySize=auto;html=1;exitX=1;exitY=0.5;exitDx=0;exitDy=0;" edge="1" parent="avvWg3cv_dRgICwLxERR-21" source="avvWg3cv_dRgICwLxERR-87" target="avvWg3cv_dRgICwLxERR-47">
          <mxGeometry relative="1" as="geometry">
            <mxPoint x="150.00000000000023" y="85.0344827586207" as="sourcePoint" />
            <mxPoint x="218.5" y="85" as="targetPoint" />
          </mxGeometry>
        </mxCell>
        <mxCell id="avvWg3cv_dRgICwLxERR-49" value="generate" style="edgeLabel;html=1;align=center;verticalAlign=middle;resizable=0;points=[];" vertex="1" connectable="0" parent="avvWg3cv_dRgICwLxERR-46">
          <mxGeometry x="-0.4493" y="4" relative="1" as="geometry">
            <mxPoint x="11" y="4" as="offset" />
          </mxGeometry>
        </mxCell>
        <mxCell id="avvWg3cv_dRgICwLxERR-51" style="rounded=1;orthogonalLoop=1;jettySize=auto;html=1;entryX=1;entryY=0.25;entryDx=0;entryDy=0;dashed=1;edgeStyle=orthogonalEdgeStyle;curved=0;" edge="1" parent="avvWg3cv_dRgICwLxERR-21" source="avvWg3cv_dRgICwLxERR-47" target="avvWg3cv_dRgICwLxERR-88">
          <mxGeometry relative="1" as="geometry">
            <mxPoint x="240.00000000000273" y="145" as="targetPoint" />
            <Array as="points">
              <mxPoint x="246" y="146" />
              <mxPoint x="150" y="146" />
            </Array>
          </mxGeometry>
        </mxCell>
        <mxCell id="avvWg3cv_dRgICwLxERR-52" value="read" style="edgeLabel;html=1;align=center;verticalAlign=middle;resizable=0;points=[];" vertex="1" connectable="0" parent="avvWg3cv_dRgICwLxERR-51">
          <mxGeometry x="-0.1499" y="3" relative="1" as="geometry">
            <mxPoint x="-3" y="-10" as="offset" />
          </mxGeometry>
        </mxCell>
        <mxCell id="avvWg3cv_dRgICwLxERR-47" value="" style="image;aspect=fixed;html=1;points=[];align=center;fontSize=12;image=img/lib/azure2/general/Folder_Blank.svg;" vertex="1" parent="avvWg3cv_dRgICwLxERR-21">
          <mxGeometry x="230" y="70.00999999999999" width="32" height="25.97" as="geometry" />
        </mxCell>
        <mxCell id="avvWg3cv_dRgICwLxERR-48" value="/dist" style="text;html=1;align=center;verticalAlign=middle;whiteSpace=wrap;rounded=0;" vertex="1" parent="avvWg3cv_dRgICwLxERR-21">
          <mxGeometry x="250" y="70.01" width="60" height="30" as="geometry" />
        </mxCell>
        <mxCell id="avvWg3cv_dRgICwLxERR-87" value="npm" style="rounded=1;whiteSpace=wrap;html=1;" vertex="1" parent="avvWg3cv_dRgICwLxERR-21">
          <mxGeometry x="40" y="64.00999999999999" width="110" height="42" as="geometry" />
        </mxCell>
        <mxCell id="avvWg3cv_dRgICwLxERR-88" value="rsync" style="rounded=1;whiteSpace=wrap;html=1;" vertex="1" parent="avvWg3cv_dRgICwLxERR-21">
          <mxGeometry x="40" y="135" width="110" height="42" as="geometry" />
        </mxCell>
        <mxCell id="avvWg3cv_dRgICwLxERR-37" style="rounded=1;orthogonalLoop=1;jettySize=auto;html=1;exitX=1;exitY=0.5;exitDx=0;exitDy=0;entryX=0.471;entryY=-0.016;entryDx=0;entryDy=0;entryPerimeter=0;edgeStyle=orthogonalEdgeStyle;curved=0;" edge="1" parent="avvWg3cv_dRgICwLxERR-66" source="avvWg3cv_dRgICwLxERR-76" target="avvWg3cv_dRgICwLxERR-21">
          <mxGeometry relative="1" as="geometry">
            <mxPoint x="255" y="286" as="targetPoint" />
          </mxGeometry>
        </mxCell>
        <mxCell id="avvWg3cv_dRgICwLxERR-40" value="create instance" style="edgeLabel;html=1;align=center;verticalAlign=middle;resizable=0;points=[];" vertex="1" connectable="0" parent="avvWg3cv_dRgICwLxERR-37">
          <mxGeometry x="-0.0385" y="2" relative="1" as="geometry">
            <mxPoint x="-26" y="-6" as="offset" />
          </mxGeometry>
        </mxCell>
        <mxCell id="avvWg3cv_dRgICwLxERR-24" value="&lt;font style=&quot;font-size: 9px;&quot;&gt;image&lt;/font&gt;" style="whiteSpace=wrap;html=1;shape=mxgraph.basic.document" vertex="1" parent="1">
          <mxGeometry x="620.91" y="365" width="32.73" height="40" as="geometry" />
        </mxCell>
        <mxCell id="avvWg3cv_dRgICwLxERR-83" style="rounded=0;orthogonalLoop=1;jettySize=auto;html=1;entryX=-0.038;entryY=0.58;entryDx=0;entryDy=0;entryPerimeter=0;dashed=1;exitX=1.007;exitY=0.488;exitDx=0;exitDy=0;exitPerimeter=0;" edge="1" parent="1" source="avvWg3cv_dRgICwLxERR-104" target="avvWg3cv_dRgICwLxERR-76">
          <mxGeometry relative="1" as="geometry">
            <mxPoint x="303" y="502.8883376042745" as="sourcePoint" />
          </mxGeometry>
        </mxCell>
        <mxCell id="avvWg3cv_dRgICwLxERR-91" value="git pull" style="edgeLabel;html=1;align=center;verticalAlign=middle;resizable=0;points=[];" vertex="1" connectable="0" parent="avvWg3cv_dRgICwLxERR-83">
          <mxGeometry x="-0.1341" y="-1" relative="1" as="geometry">
            <mxPoint as="offset" />
          </mxGeometry>
        </mxCell>
        <mxCell id="avvWg3cv_dRgICwLxERR-85" value="" style="rounded=1;orthogonalLoop=1;jettySize=auto;html=1;entryX=0.394;entryY=0.015;entryDx=0;entryDy=0;entryPerimeter=0;exitX=1;exitY=0.5;exitDx=0;exitDy=0;dashed=1;edgeStyle=orthogonalEdgeStyle;curved=0;" edge="1" parent="1" source="avvWg3cv_dRgICwLxERR-89" target="avvWg3cv_dRgICwLxERR-61">
          <mxGeometry relative="1" as="geometry">
            <mxPoint x="1097" y="721" as="targetPoint" />
            <mxPoint x="1010.0000461355748" y="525.0344827586207" as="sourcePoint" />
            <Array as="points">
              <mxPoint x="1130" y="531" />
              <mxPoint x="1130" y="680" />
              <mxPoint x="1053" y="680" />
            </Array>
          </mxGeometry>
        </mxCell>
        <mxCell id="avvWg3cv_dRgICwLxERR-104" value="&amp;nbsp; &amp;nbsp; &amp;nbsp; Git Repository Server" style="shape=umlFrame;whiteSpace=wrap;html=1;pointerEvents=0;recursiveResize=0;container=1;collapsible=0;width=160;height=32;" vertex="1" parent="1">
          <mxGeometry x="60" y="423" width="300" height="161" as="geometry" />
        </mxCell>
        <mxCell id="avvWg3cv_dRgICwLxERR-96" value="&lt;font size=&quot;1&quot;&gt;script&lt;/font&gt;" style="whiteSpace=wrap;html=1;shape=mxgraph.basic.document" vertex="1" parent="avvWg3cv_dRgICwLxERR-104">
          <mxGeometry x="33.75" y="50" width="35" height="40" as="geometry" />
        </mxCell>
        <mxCell id="avvWg3cv_dRgICwLxERR-98" value=".gitlab-ci.yml" style="text;html=1;align=center;verticalAlign=middle;whiteSpace=wrap;rounded=0;" vertex="1" parent="avvWg3cv_dRgICwLxERR-104">
          <mxGeometry x="10" y="89" width="82.5" height="21" as="geometry" />
        </mxCell>
        <mxCell id="avvWg3cv_dRgICwLxERR-111" value="" style="shape=image;html=1;verticalAlign=top;verticalLabelPosition=bottom;labelBackgroundColor=#ffffff;imageAspect=0;aspect=fixed;image=https://cdn0.iconfinder.com/data/icons/phosphor-thin-vol-3/256/gitlab-logo-thin-128.png" vertex="1" parent="avvWg3cv_dRgICwLxERR-104">
          <mxGeometry x="4" y="2" width="27" height="27" as="geometry" />
        </mxCell>
        <mxCell id="avvWg3cv_dRgICwLxERR-113" value="" style="sketch=0;outlineConnect=0;fontColor=#232F3E;gradientColor=none;fillColor=#232F3D;strokeColor=none;dashed=0;verticalLabelPosition=bottom;verticalAlign=top;align=center;html=1;fontSize=12;fontStyle=0;aspect=fixed;pointerEvents=1;shape=mxgraph.aws4.gear;" vertex="1" parent="avvWg3cv_dRgICwLxERR-104">
          <mxGeometry x="110" y="47.25" width="16.75" height="16.75" as="geometry" />
        </mxCell>
        <mxCell id="avvWg3cv_dRgICwLxERR-116" value="&lt;font size=&quot;1&quot; style=&quot;&quot;&gt;&lt;b style=&quot;&quot;&gt;CI/CD Settings&lt;/b&gt;&lt;/font&gt;" style="text;html=1;align=center;verticalAlign=middle;whiteSpace=wrap;rounded=0;" vertex="1" parent="avvWg3cv_dRgICwLxERR-104">
          <mxGeometry x="126.75" y="43.5" width="80" height="20.5" as="geometry" />
        </mxCell>
        <mxCell id="avvWg3cv_dRgICwLxERR-118" value="&lt;div style=&quot;font-size: 10px;&quot;&gt;&lt;font style=&quot;font-size: 10px;&quot;&gt;&lt;b style=&quot;&quot;&gt;* Runner&lt;/b&gt;&lt;/font&gt;&lt;/div&gt;&lt;font style=&quot;font-size: 10px;&quot;&gt;&lt;b style=&quot;&quot;&gt;* Variables&lt;/b&gt;&lt;/font&gt;&lt;div&gt;&lt;font style=&quot;font-size: 7px;&quot;&gt;&amp;nbsp; &amp;nbsp; $PRODUCT_SERVER_ID,&lt;/font&gt;&lt;/div&gt;&lt;div&gt;&lt;font style=&quot;font-size: 7px;&quot;&gt;&amp;nbsp; &amp;nbsp; $PRODUCT_SERVER_PORT,&lt;br&gt;&amp;nbsp; &amp;nbsp; &amp;nbsp; ....&lt;/font&gt;&lt;/div&gt;" style="text;html=1;align=left;verticalAlign=middle;whiteSpace=wrap;rounded=0;strokeColor=default;strokeWidth=0.5;" vertex="1" parent="avvWg3cv_dRgICwLxERR-104">
          <mxGeometry x="110" y="68" width="120" height="79.5" as="geometry" />
        </mxCell>
      </root>
    </mxGraphModel>
  </diagram>
</mxfile>
